#!OML:ASF F:\VICON\USERDATA\INSTALL\Justin_Nancy\Justin_Nancy.ASF
:FULLY-SPECIFIED
:DEGREES
277
root -8.33884 17.3184 6.18881 0.270662 8.31537 1.81997
lowerback 6.08833 -0.765749 -5.0481
upperback 0.768091 -1.30934 1.59507
thorax -2.47007 -0.599566 4.59882
lowerneck -18.6201 -4.41523 -9.83987
upperneck 21.3724 -4.40289 4.70764
head 10.2441 -2.28266 2.66895
rclavicle 1.33434e-014 8.74653e-015
rhumerus -30.2948 -18.6177 -76.0662
rradius 25.1125
rwrist 12.9775
rhand -13.2836 11.9096
rfingers 7.12502
rthumb 12.8198 -17.6767
lclavicle 1.33434e-014 8.74653e-015
lhumerus -26.6283 6.52163 85.165
lradius 38.9212
lwrist -1.39747
lhand -17.2541 24.583
lfingers 7.12502
lthumb 8.99016 54.3714
rfemur -24.7857 8.76915 8.97738
rtibia 19.9799
rfoot 2.50683 11.2337
rtoes -7.98527
lfemur 1.28842 -5.7618 -28.098
ltibia 24.3067
lfoot -18.4133 -10.4895
ltoes 7.19649
278
root -8.34041 17.3067 6.30249 0.324834 9.11613 1.60178
lowerback 6.48285 -0.849256 -4.82313
upperback 0.506858 -1.42547 1.67474
thorax -2.95206 -0.639253 4.57834
lowerneck -18.4229 -4.41923 -9.92307
upperneck 21.4008 -4.37972 4.60824
head 10.2162 -2.29325 2.65273
rclavicle 1.24986e-014 -5.96354e-015
rhumerus -30.5259 -17.8324 -76.2464
rradius 25.7923
rwrist 11.8628
rhand -12.0504 9.36418
rfingers 7.12502
rthumb 14.0085 -20.1438
lclavicle 1.24986e-014 -5.96354e-015
lhumerus -27.0527 6.64425 85.2217
lradius 39.038
lwrist -1.47394
lhand -16.6486 27.0147
lfingers 7.12502
lthumb 9.57445 56.7771
rfemur -24.6204 9.25316 8.83518
rtibia 20.4417
rfoot 3.12259 12.8316
rtoes -5.17724
lfemur 1.49833 -6.3814 -27.8701
ltibia 24.7151
lfoot -18.6166 -10.3147
ltoes 6.27475
279
root -8.34509 17.2919 6.41481 0.406579 9.98554 1.69185
lowerback 6.88318 -0.939327 -4.81605
upperback 0.262701 -1.57046 1.5805
thorax -3.41669 -0.692825 4.50414
lowerneck -18.1285 -4.41132 -9.88942
upperneck 21.5581 -4.39984 4.55342
head 10.2175 -2.31187 2.62942
rclavicle 1.81639e-014 -9.93923e-015
rhumerus -30.9808 -17.4764 -76.3796
rradius 26.1189
rwrist 12.0115
rhand -11.7538 8.45271
rfingers 7.12502
rthumb 14.2943 -21.0353
lclavicle 1.81639e-014 -9.93923e-015
lhumerus -27.6412 6.58433 85.1714
lradius 39.2909
lwrist -1.58803
lhand -17.2154 26.0268
lfingers 7.12502
lthumb 9.02746 55.8136
rfemur -24.3689 9.54007 8.43115
rtibia 20.9608
rfoot 2.93822 15.0069
rtoes -2.62641
lfemur 1.68295 -6.86307 -27.9161
ltibia 25.1092
lfoot -18.6134 -10.4386
ltoes 6.34611
280
root -8.35122 17.2763 6.52981 0.542873 10.9323 1.96378
lowerback 7.04612 -1.05492 -5.1311
upperback 0.134002 -1.76188 1.52561
thorax -3.61331 -0.774265 4.65049
lowerneck -17.802 -4.37292 -9.9924
upperneck 21.5114 -4.35517 4.57661
head 10.1396 -2.30026 2.66456
rclavicle 1.44119e-015 -3.57812e-015
rhumerus -31.1182 -17.2571 -76.4405
rradius 26.2439
rwrist 11.8448
rhand -11.854 8.21357
rfingers 7.12502
rthumb 14.1977 -21.2812
lclavicle 1.44119e-015 -3.57812e-015
lhumerus -27.9637 6.55596 85.2214
lradius 39.3068
lwrist -1.57524
lhand -18.3214 24.5051
lfingers 7.12502
lthumb 7.96019 54.3352
rfemur -24.1569 9.61623 7.87571
rtibia 21.6432
rfoot 2.46178 17.0988
rtoes 0.919985
lfemur 1.85384 -7.48055 -28.18
ltibia 25.4244
lfoot -18.5489 -10.3953
ltoes 5.87505
281
root -8.35351 17.2775 6.65386 0.68206 11.8954 2.15484
lowerback 7.00679 -1.17536 -5.33937
upperback 0.0515453 -1.94084 1.47489
thorax -3.65137 -0.856917 4.73237
lowerneck -17.6054 -4.35194 -10.0572
upperneck 21.6049 -4.31047 4.50146
head 10.1333 -2.29717 2.65798
rclavicle 1.73937e-016 -1.15295e-014
rhumerus -31.1583 -16.9547 -76.5513
rradius 26.172
rwrist 11.353
rhand -12.4346 8.8613
rfingers 7.12502
rthumb 13.6382 -20.6719
lclavicle 1.73937e-016 -1.15295e-014
lhumerus -28.1476 6.56445 85.2785
lradius 39.2358
lwrist -1.57584
lhand -18.7798 23.0561
lfingers 7.12502
lthumb 7.51774 52.9025
rfemur -23.8804 9.86545 7.38883
rtibia 22.3958
rfoot 2.43523 17.6071
rtoes 5.95708
lfemur 2.03888 -8.11044 -28.3541
ltibia 25.7375
lfoot -18.3639 -10.3726
ltoes 5.71247
282
root -8.35787 17.2859 6.78051 0.647505 12.8067 2.04306
lowerback 6.97973 -1.28929 -5.26949
upperback 0.0746795 -2.08382 1.50637
thorax -3.59602 -0.931364 4.73733
lowerneck -17.4394 -4.33398 -10.0151
upperneck 21.6649 -4.27771 4.3513
head 10.1172 -2.29847 2.60455
rclavicle -3.3048e-015 -7.95139e-016
rhumerus -31.1817 -16.5611 -76.7716
rradius 26.3043
rwrist 10.8466
rhand -12.7288 9.34963
rfingers 7.12502
rthumb 13.3547 -20.2024
lclavicle -3.3048e-015 -7.95139e-016
lhumerus -28.3014 6.58259 85.3158
lradius 39.0902
lwrist -1.37207
lhand -19.0149 23.1435
lfingers 7.12502
lthumb 7.29074 52.9979
rfemur -23.3064 10.2643 7.33514
rtibia 22.962
rfoot 1.94556 16.4374
rtoes 7.8698
lfemur 2.27713 -8.78969 -28.2301
ltibia 26.1734
lfoot -18.1183 -10.3884
ltoes 6.16665
283
root -8.36495 17.284 6.90629 0.708597 13.8465 1.86854
lowerback 6.83885 -1.41718 -5.09875
upperback 0.169149 -2.23036 1.53475
thorax -3.40599 -1.01527 4.6757
lowerneck -17.4513 -4.30277 -10.0544
upperneck 21.5446 -4.23538 4.42308
head 10.0752 -2.27143 2.64168
rclavicle -1.61264e-014 1.86858e-014
rhumerus -31.0366 -16.3769 -77.0188
rradius 26.5491
rwrist 10.6834
rhand -13.1665 9.66848
rfingers 7.12502
rthumb 12.9327 -19.9107
lclavicle -1.61264e-014 1.86858e-014
lhumerus -27.9981 6.62821 85.3253
lradius 38.4449
lwrist -1.30548
lhand -19.3013 24.0844
lfingers 7.12502
lthumb 7.01431 53.9482
rfemur -22.6375 10.4765 7.42391
rtibia 23.2256
rfoot -0.0774082 14.8605
rtoes 3.18377
lfemur 2.2715 -9.49019 -27.9686
ltibia 26.8151
lfoot -17.9834 -10.4589
ltoes 6.0705
284
root -8.37231 17.2811 7.03086 0.824269 14.9355 1.68541
lowerback 6.74052 -1.54113 -4.93811
upperback 0.187999 -2.37553 1.59606
thorax -3.31785 -1.09292 4.65702
lowerneck -17.7141 -4.33776 -10.1984
upperneck 21.7141 -4.23351 4.49465
head 10.1909 -2.27309 2.69007
rclavicle 5.99584e-014 -2.78299e-015
rhumerus -30.8762 -16.3036 -77.1225
rradius 26.6212
rwrist 10.543
rhand -13.3888 10.2539
rfingers 7.12502
rthumb 12.7184 -19.3388
lclavicle 5.99584e-014 -2.78299e-015
lhumerus -27.8849 6.49538 85.4586
lradius 38.1782
lwrist -1.44747
lhand -19.1524 24.4534
lfingers 7.12502
lthumb 7.15807 54.3124
rfemur -22.0033 10.6055 7.54601
rtibia 23.2082
rfoot -1.99076 13.2217
rtoes -2.05301
lfemur 2.07526 -10.2643 -27.6857
ltibia 27.7008
lfoot -17.9069 -10.4407
ltoes 5.46065
285
root -8.37908 17.2777 7.14816 0.844933 15.8509 1.36697
lowerback 6.81894 -1.57104 -4.69022
upperback 0.105364 -2.39658 1.7162
thorax -3.45019 -1.10061 4.64981
lowerneck -17.744 -4.40054 -10.312
upperneck 21.992 -4.27227 4.42964
head 10.3027 -2.31138 2.68215
rclavicle 2.43511e-014 1.07344e-014
rhumerus -31.0961 -15.6851 -77.2723
rradius 26.986
rwrist 9.67294
rhand -13.4079 10.3155
rfingers 7.12502
rthumb 12.7 -19.2783
lclavicle 2.43511e-014 1.07344e-014
lhumerus -28.1147 6.3053 85.6558
lradius 38.1627
lwrist -1.62673
lhand -18.6169 24.0118
lfingers 7.12502
lthumb 7.67497 53.8525
rfemur -21.3706 10.7854 7.87406
rtibia 22.9626
rfoot -2.85851 12.1311
rtoes -4.09056
lfemur 1.79185 -10.8918 -27.2694
ltibia 28.8014
lfoot -17.8234 -10.3575
ltoes 4.76064
286
root -8.38241 17.2716 7.27021 0.848935 16.8373 1.01881
lowerback 6.88275 -1.59454 -4.36221
upperback 0.0220575 -2.40167 1.81994
thorax -3.58079 -1.10221 4.5782
lowerneck -17.6206 -4.39995 -10.3001
upperneck 22.0727 -4.25383 4.29515
head 10.3045 -2.31968 2.63674
rclavicle 3.26255e-014 1.11319e-014
rhumerus -31.4471 -15.0468 -77.4567
rradius 27.4085
rwrist 8.69419
rhand -13.556 10.0544
rfingers 7.12502
rthumb 12.5571 -19.5483
lclavicle 3.26255e-014 1.11319e-014
lhumerus -28.3797 6.08924 85.8327
lradius 38.1542
lwrist -1.85389
lhand -18.0456 24.3344
lfingers 7.12502
lthumb 8.22633 54.1543
rfemur -20.6757 10.425 8.35808
rtibia 22.7111
rfoot -3.91041 12.2821
rtoes -4.96014
lfemur 1.4281 -11.562 -26.8275
ltibia 30.0066
lfoot -17.6252 -10.3666
ltoes 3.89254
287
root -8.3836 17.2671 7.39642 0.899802 17.9055 0.764295
lowerback 6.86434 -1.64316 -4.06138
upperback 0.00877658 -2.43979 1.86876
thorax -3.59011 -1.12547 4.46206
lowerneck -17.6614 -4.42073 -10.2423
upperneck 22.0262 -4.25263 4.14074
head 10.2909 -2.33043 2.57096
rclavicle 1.06847e-014 7.95139e-015
rhumerus -31.4315 -14.9991 -77.5391
rradius 27.4085
rwrist 8.37871
rhand -13.6803 9.8373
rfingers 7.12502
rthumb 12.4374 -19.7727
lclavicle 1.06847e-014 7.95139e-015
lhumerus -28.6384 5.72712 86.0346
lradius 38.3462
lwrist -1.61329
lhand -17.8896 26.6994
lfingers 7.12502
lthumb 8.37686 56.5133
rfemur -20.0612 9.62024 8.81046
rtibia 22.5874
rfoot -5.47475 12.8061
rtoes -6.55272
lfemur 1.00411 -12.2152 -26.4552
ltibia 31.2846
lfoot -17.3717 -10.5567
ltoes 2.26437
288
root -8.38179 17.2786 7.5148 0.994656 18.8785 0.544887
lowerback 6.88043 -1.66959 -3.78872
upperback -0.0327771 -2.45161 1.92798
thorax -3.64964 -1.1332 4.37271
lowerneck -17.9718 -4.46637 -10.3613
upperneck 22.3088 -4.2441 4.12305
head 10.4549 -2.3392 2.58434
rclavicle 5.18828e-014 -9.54166e-015
rhumerus -31.4238 -14.7828 -77.6438
rradius 27.6115
rwrist 7.872
rhand -13.9552 10.0043
rfingers 7.12502
rthumb 12.1723 -19.6215
lclavicle 5.18828e-014 -9.54166e-015
lhumerus -28.8142 5.66136 86.1598
lradius 38.2111
lwrist -1.57425
lhand -17.954 26.7198
lfingers 7.12502
lthumb 8.31468 56.5361
rfemur -19.516 8.51105 9.32661
rtibia 22.6102
rfoot -6.1623 12.7346
rtoes -7.54156
lfemur 0.460057 -12.9685 -26.1332
ltibia 32.6039
lfoot -16.7866 -10.8
ltoes 1.83907
289
root -8.38041 17.3053 7.62945 1.04299 19.7122 0.0399083
lowerback 6.88952 -1.62764 -3.28114
upperback -0.110776 -2.34956 2.07038
thorax -3.76019 -1.0862 4.22778
lowerneck -18.2219 -4.51249 -10.4873
upperneck 22.7275 -4.24655 4.12404
head 10.66 -2.35453 2.60622
rclavicle 3.75952e-014 -8.74653e-015
rhumerus -31.4732 -14.6648 -77.6411
rradius 27.7353
rwrist 7.80152
rhand -14.6126 11.3081
rfingers 7.12502
rthumb 11.5383 -18.3543
lclavicle 3.75952e-014 -8.74653e-015
lhumerus -28.8946 5.64607 86.2192
lradius 37.8372
lwrist -1.6466
lhand -17.7363 25.0505
lfingers 7.12502
lthumb 8.52482 54.8584
rfemur -18.9727 7.80653 10.1562
rtibia 22.587
rfoot -5.59919 11.8055
rtoes -6.70701
lfemur -0.341188 -13.4667 -25.4327
ltibia 34.0865
lfoot -16.1172 -11.1201
ltoes 0.680324
290
root -8.37768 17.328 7.74383 0.93915 20.5453 -0.516921
lowerback 6.70029 -1.51273 -2.83122
upperback 0.0863556 -2.14626 2.30354
thorax -3.47576 -1.00085 4.18527
lowerneck -18.1002 -4.4725 -10.4049
upperneck 22.4157 -4.14218 3.82309
head 10.5065 -2.33041 2.49776
rclavicle -1.15295e-014 1.31198e-014
rhumerus -31.1212 -14.7953 -77.4839
rradius 27.5942
rwrist 8.22386
rhand -15.5351 12.3119
rfingers 7.12502
rthumb 10.6487 -17.3983
lclavicle -1.15295e-014 1.31198e-014
lhumerus -28.5684 5.70076 86.5297
lradius 37.4183
lwrist -1.86552
lhand -17.3659 24.4396
lfingers 7.12502
lthumb 8.88222 54.2326
rfemur -18.2025 7.39816 10.9835
rtibia 22.3406
rfoot -5.17236 10.8912
rtoes -4.79129
lfemur -1.17999 -13.9224 -24.6938
ltibia 35.8224
lfoot -15.2869 -11.6495
ltoes 0.158904
